<?xml version="1.0" standalone="no"?>
<!DOCTYPE svg PUBLIC "-//W3C//DTD SVG 20010904//EN"
 "http://www.w3.org/TR/2001/REC-SVG-20010904/DTD/svg10.dtd">
<svg version="1.0" xmlns="http://www.w3.org/2000/svg"
 width="512.000000pt" height="512.000000pt" viewBox="0 0 512.000000 512.000000"
 preserveAspectRatio="xMidYMid meet">
<metadata>
Created by potrace 1.14, written by Peter Selinger 2001-2017
</metadata>
<g transform="translate(0.000000,512.000000) scale(0.100000,-0.100000)"
fill="#000000" stroke="none">
<path d="M2530 4755 c-8 -9 -17 -12 -24 -6 -14 11 -46 10 -46 -1 0 -4 -5 -8
-11 -8 -5 0 -7 6 -3 13 4 6 -4 2 -17 -10 -20 -18 -28 -20 -37 -11 -9 9 -12 8
-12 -7 0 -17 -2 -18 -10 -5 -9 14 -15 7 -11 -14 1 -5 -4 -4 -12 2 -10 9 -16 7
-27 -8 -16 -22 -35 -27 -25 -7 4 6 -3 1 -14 -12 -12 -13 -21 -19 -21 -15 0 5
-7 -2 -16 -14 -9 -13 -22 -21 -30 -18 -13 5 -18 -6 -15 -26 0 -5 -2 -7 -7 -6
-4 2 -18 -5 -32 -15 -13 -9 -21 -17 -17 -17 4 0 2 -6 -5 -14 -7 -8 -16 -12
-20 -9 -5 2 -8 -5 -8 -17 0 -12 -4 -18 -10 -15 -5 3 -10 3 -10 -2 0 -4 -14
-24 -30 -43 -16 -19 -30 -40 -30 -46 0 -5 -9 -20 -20 -32 -12 -12 -17 -22 -13
-22 4 0 -2 -7 -13 -16 -10 -8 -12 -13 -4 -9 9 4 8 1 -3 -8 -10 -9 -19 -19 -19
-24 -2 -21 -21 -63 -29 -63 -5 0 -8 -3 -7 -7 1 -5 -4 -24 -11 -43 -8 -19 -13
-38 -12 -42 0 -5 -4 -8 -9 -8 -5 0 -9 -3 -9 -7 3 -16 -14 -73 -21 -73 -4 0 -6
-11 -5 -25 2 -14 0 -25 -4 -25 -4 0 -8 -6 -9 -12 -2 -22 -9 -61 -21 -119 -13
-62 -21 -134 -24 -221 -1 -32 -5 -58 -9 -58 -3 0 -4 -8 -2 -17 2 -10 6 -81 8
-158 2 -77 5 -140 6 -140 1 0 4 -12 6 -27 2 -16 6 -40 8 -55 2 -16 5 -28 6
-28 1 0 4 -18 5 -40 2 -22 4 -41 5 -42 2 -2 4 -7 5 -13 1 -5 3 -11 5 -12 2 -3
5 -19 13 -60 3 -15 9 -33 13 -39 4 -7 8 -21 9 -33 4 -36 5 -37 13 -32 5 3 8
-5 7 -17 -1 -12 4 -28 12 -35 7 -8 11 -18 8 -23 -4 -5 -1 -9 5 -9 6 0 9 -4 5
-9 -3 -5 0 -15 7 -23 7 -7 14 -20 16 -28 2 -8 9 -18 15 -22 7 -4 8 -8 4 -8 -9
0 23 -61 38 -72 6 -4 6 -8 2 -8 -4 0 -3 -6 3 -12 41 -50 49 -62 43 -71 -3 -5
-2 -8 3 -5 5 3 15 0 22 -8 7 -8 9 -14 5 -14 -4 0 3 -7 15 -16 12 -8 22 -22 22
-30 0 -8 6 -13 13 -12 6 2 11 -3 9 -9 -1 -7 5 -13 13 -13 8 0 15 -7 15 -15 0
-8 3 -14 8 -14 21 4 32 -3 32 -18 0 -9 3 -14 6 -10 4 3 13 0 21 -8 8 -8 24
-15 36 -15 18 0 19 -2 7 -10 -12 -8 -11 -10 8 -10 12 0 22 -5 22 -11 0 -5 5
-7 10 -4 6 3 10 1 10 -5 0 -6 5 -8 11 -5 5 4 20 -1 31 -12 14 -12 19 -13 13
-3 -5 9 1 7 15 -5 14 -12 20 -14 15 -5 -8 13 -6 13 8 2 9 -8 22 -10 28 -6 8 4
9 3 5 -4 -4 -7 -2 -12 3 -12 6 0 11 5 11 10 0 6 5 10 10 10 6 0 10 -7 10 -15
0 -8 5 -15 11 -15 5 0 8 4 5 8 -3 5 5 7 17 6 12 -1 22 -3 22 -4 0 -7 36 -6 41
1 3 6 12 5 22 -3 10 -8 13 -9 9 -1 -4 6 -3 14 3 18 5 3 10 0 10 -7 0 -9 3 -9
10 2 5 8 10 11 10 6 0 -5 8 -2 17 5 15 12 16 12 8 -1 -8 -13 -6 -13 8 -2 9 8
22 10 28 6 8 -4 9 -3 5 4 -6 10 16 18 27 10 1 -1 13 5 27 12 14 8 29 13 33 12
4 -1 10 5 13 13 4 8 12 15 20 15 8 0 14 4 14 9 0 5 9 11 21 14 13 4 18 10 13
18 -4 7 -3 10 3 6 6 -4 31 13 56 37 25 24 49 41 53 38 4 -4 4 -2 1 4 -3 5 5
23 19 39 13 15 24 32 24 37 0 5 4 7 9 4 8 -5 36 42 33 57 -1 4 3 7 8 7 6 0 19
20 30 45 11 25 24 45 30 45 5 0 9 3 9 8 -4 24 2 52 11 47 6 -3 10 2 10 12 0
10 6 27 14 38 12 18 30 75 26 84 -1 2 3 7 9 10 6 4 12 19 13 34 1 15 5 27 9
27 4 0 6 8 4 18 -1 9 2 22 7 28 5 7 10 29 12 50 2 22 7 46 10 56 4 9 8 29 10
45 1 15 6 35 11 42 5 10 4 16 -4 19 -8 3 -9 8 -1 17 8 9 6 14 -5 19 -8 3 -15
0 -15 -7 0 -7 -3 -8 -8 -2 -14 19 -94 25 -100 7 -2 -7 -8 -9 -14 -6 -7 5 -9
-2 -6 -20 3 -14 2 -26 -2 -26 -3 0 -12 -29 -19 -65 -6 -36 -17 -77 -23 -93 -6
-15 -13 -36 -15 -47 -2 -10 -9 -23 -16 -27 -6 -4 -9 -8 -4 -8 4 0 -2 -16 -13
-37 -10 -20 -17 -40 -14 -45 3 -4 0 -8 -5 -8 -6 0 -11 -5 -11 -12 0 -6 -11
-26 -25 -44 -14 -18 -25 -37 -25 -42 0 -5 -7 -15 -15 -22 -9 -7 -13 -15 -11
-17 3 -3 -9 -18 -25 -34 -16 -15 -29 -34 -29 -40 0 -7 -3 -10 -6 -6 -4 3 -27
-15 -53 -42 -25 -26 -48 -48 -51 -49 -37 -7 -73 -35 -62 -48 4 -5 -1 -2 -10 5
-13 10 -18 10 -18 2 0 -7 -4 -10 -9 -6 -5 3 -12 1 -16 -5 -9 -15 -27 -12 -20
3 4 6 0 4 -8 -5 -11 -14 -16 -15 -26 -5 -10 9 -12 9 -9 -2 4 -16 -48 -25 -58
-10 -3 6 -15 4 -30 -5 -19 -13 -22 -14 -18 -2 4 11 0 13 -15 9 -14 -3 -21 -1
-21 8 0 11 -2 11 -10 -1 -7 -11 -10 -11 -10 -2 0 7 -4 10 -10 7 -5 -3 -10 0
-10 7 0 9 -3 9 -10 -2 -7 -11 -10 -11 -10 -2 0 7 -4 10 -10 7 -5 -3 -10 2 -11
12 0 11 -3 13 -6 5 -4 -10 -9 -9 -20 5 -8 10 -11 11 -7 3 4 -8 -5 -3 -20 12
-16 15 -32 25 -37 22 -5 -3 -9 2 -9 10 0 9 -3 15 -7 15 -19 -3 -33 2 -33 11 0
12 -40 53 -41 43 0 -5 -4 1 -8 12 -5 11 -14 20 -22 20 -8 1 -13 7 -11 15 2 8
-5 20 -14 27 -10 7 -14 13 -9 13 4 0 -2 8 -13 19 -12 10 -19 21 -15 24 3 4 -2
9 -11 13 -9 3 -16 15 -16 25 0 10 -5 19 -10 19 -6 0 -9 3 -8 8 2 10 -25 66
-37 74 -5 4 -7 8 -2 8 4 0 1 16 -7 35 -8 19 -12 35 -9 35 3 0 0 7 -7 15 -7 8
-9 15 -5 15 4 0 3 6 -3 13 -6 7 -12 26 -14 42 -2 17 -6 32 -10 35 -4 3 -9 26
-12 50 -2 25 -5 45 -6 45 -2 0 -5 18 -8 40 -8 64 -11 425 -4 425 4 0 8 17 9
38 5 75 8 97 17 103 5 4 9 18 9 33 0 14 3 26 8 26 5 0 8 3 7 8 -3 16 15 82 23
82 5 0 8 4 6 8 -4 13 26 82 35 82 5 0 7 4 3 9 -3 5 -1 12 5 16 6 4 8 11 5 16
-4 5 -1 9 4 9 6 0 11 7 11 15 0 9 7 18 15 21 8 4 13 10 10 14 -3 5 -2 11 3 14
5 3 8 -178 9 -402 0 -342 3 -455 15 -579 1 -7 6 -13 12 -13 6 0 4 -5 -4 -10
-9 -6 -10 -10 -3 -10 6 0 10 -9 8 -20 -2 -11 -1 -20 3 -20 7 0 12 -20 15 -62
1 -10 4 -18 8 -18 3 0 11 -18 18 -40 6 -22 16 -40 21 -40 6 0 9 -3 8 -7 -3
-13 25 -63 34 -63 5 0 7 -4 3 -9 -3 -6 0 -13 7 -18 7 -4 18 -17 25 -28 6 -11
16 -19 22 -17 6 1 11 -4 11 -12 0 -17 39 -48 51 -41 4 3 9 -2 13 -10 3 -8 13
-15 21 -15 9 0 13 -5 9 -11 -4 -7 1 -7 16 1 18 10 21 9 15 -1 -6 -9 -2 -11 13
-7 13 4 23 0 26 -9 5 -12 9 -13 21 -3 12 10 15 10 15 -1 0 -11 2 -11 10 1 7
11 10 11 10 2 0 -8 5 -10 13 -5 6 4 19 6 29 5 9 -2 19 2 23 8 5 8 11 8 21 -1
11 -9 14 -9 14 0 0 7 5 9 10 6 6 -3 10 -1 10 5 0 6 5 8 10 5 6 -3 10 -1 10 5
0 6 4 9 9 6 5 -3 20 5 34 18 14 13 28 22 30 19 3 -2 8 5 12 16 3 12 11 19 16
16 5 -4 9 1 9 9 0 9 4 16 9 16 4 0 20 18 35 40 14 22 24 40 20 40 -3 0 2 7 10
16 9 8 13 20 10 26 -4 7 -2 8 4 4 11 -6 16 6 13 27 0 4 4 7 10 7 5 0 8 4 4 9
-3 5 -1 12 5 16 6 4 8 11 5 16 -4 5 -2 9 3 9 5 0 9 7 10 15 1 8 3 22 4 30 1 8
5 15 10 15 5 0 6 5 3 10 -4 6 -3 16 2 23 5 7 9 19 8 27 0 8 4 18 10 22 6 5 5
8 -4 8 -9 0 -10 4 -3 13 5 7 6 21 1 32 -4 11 -8 17 -8 13 -1 -4 -14 -3 -31 2
-19 6 -32 5 -36 -2 -5 -7 -2 -8 6 -3 9 6 11 4 6 -4 -6 -9 -13 -8 -29 6 -11 10
-17 13 -14 7 4 -7 0 -15 -9 -18 -8 -3 -13 -2 -10 2 3 5 -1 9 -9 9 -8 0 -13 -3
-10 -5 3 -3 0 -11 -6 -19 -6 -7 -9 -13 -5 -13 8 0 -35 -114 -47 -121 -5 -4 -6
-12 -2 -19 5 -8 4 -11 -2 -7 -9 6 -25 -15 -27 -33 0 -3 -16 -21 -35 -40 -19
-19 -29 -27 -21 -17 11 15 11 17 -3 12 -8 -4 -17 -15 -20 -26 -3 -10 -11 -19
-19 -19 -10 0 -9 3 2 10 10 7 11 10 2 10 -7 0 -15 -7 -18 -15 -4 -8 -10 -12
-15 -9 -5 3 -9 1 -9 -3 0 -11 -41 -9 -60 2 -9 5 -11 4 -6 -3 4 -7 2 -12 -4
-12 -6 0 -13 7 -17 16 -5 13 -7 13 -14 2 -7 -10 -9 -11 -9 0 0 7 -4 11 -9 7
-5 -3 -17 2 -25 11 -9 8 -16 13 -16 10 0 -3 -11 6 -25 20 -14 14 -25 27 -25
30 0 3 -11 16 -25 30 -14 14 -25 31 -25 38 0 7 -10 32 -22 57 -11 24 -21 51
-21 59 0 8 -3 20 -6 25 -4 6 -6 27 -6 48 1 20 -1 37 -5 37 -4 0 -5 1022 -1
1053 1 5 6 5 11 2 6 -3 10 -1 10 4 0 6 7 11 16 11 8 0 13 4 9 9 -5 9 23 24 36
18 3 -1 13 6 23 16 10 9 22 15 27 12 5 -4 9 -1 9 5 0 7 5 6 14 -3 11 -10 14
-42 13 -130 -1 -72 2 -117 8 -117 7 0 7 -3 0 -8 -12 -9 -14 -72 -1 -72 4 0 3
-7 -4 -15 -10 -12 -10 -15 1 -15 9 0 10 -3 4 -8 -6 -4 -10 -62 -10 -137 0 -75
4 -133 10 -137 7 -5 6 -8 0 -8 -14 0 -13 -80 0 -80 7 0 7 -3 0 -8 -12 -9 -14
-72 -1 -72 4 0 3 -6 -3 -14 -9 -11 -9 -15 1 -19 7 -3 9 -6 3 -6 -6 -1 -10 -35
-9 -83 1 -46 -3 -91 -8 -102 -8 -14 -7 -17 4 -10 11 6 11 5 -1 -9 -7 -9 -9
-17 -4 -17 5 0 10 -7 10 -15 0 -8 -5 -15 -11 -15 -6 0 -5 -5 2 -12 7 -7 12
-22 12 -35 0 -13 5 -23 11 -23 5 0 7 -4 4 -10 -3 -5 -1 -10 6 -10 7 0 10 -3 6
-6 -7 -8 17 -34 32 -34 6 0 8 -8 5 -17 -5 -17 -5 -17 9 0 13 16 15 16 21 2 5
-13 10 -14 27 -5 28 16 59 47 51 54 -3 3 0 6 6 6 7 0 11 3 10 8 0 4 1 14 4 22
22 64 25 80 19 84 -4 3 -8 19 -9 37 -2 18 -8 37 -15 41 -7 4 -8 8 -3 8 4 0 0
12 -10 28 -17 25 -18 59 -19 489 0 310 3 459 10 455 5 -3 4 1 -3 10 -11 13 -8
15 20 15 18 -1 39 -8 46 -17 11 -13 12 -13 6 0 -5 10 1 8 16 -5 15 -13 21 -15
16 -5 -4 8 0 6 8 -4 9 -11 19 -17 22 -13 4 4 13 -1 21 -11 8 -9 11 -11 7 -3
-5 9 -3 12 4 7 7 -4 12 -14 12 -23 0 -9 6 -13 14 -10 9 4 17 -2 21 -14 4 -10
10 -19 14 -19 4 0 16 -7 27 -16 10 -8 12 -13 4 -9 -8 4 -6 -1 4 -9 11 -9 24
-16 29 -16 4 0 6 -4 2 -9 -3 -6 4 -15 16 -21 11 -7 18 -14 15 -17 -2 -3 4 -15
16 -27 11 -11 29 -41 41 -66 11 -25 24 -47 28 -50 4 -3 13 -23 20 -45 14 -40
23 -47 47 -32 7 5 14 2 18 -8 5 -12 9 -13 20 -4 11 9 14 9 14 0 0 -7 5 -9 13
-4 20 12 37 12 37 0 0 -7 5 -5 10 3 9 13 10 13 10 0 1 -12 3 -11 11 2 6 11 6
24 1 35 -5 10 -7 24 -5 31 3 6 0 12 -7 12 -6 0 -9 4 -5 10 3 5 1 17 -5 27 -13
25 -70 151 -71 161 0 4 -7 11 -15 15 -8 5 -12 12 -9 18 4 5 1 9 -4 9 -6 0 -11
7 -11 15 0 8 -4 15 -10 15 -5 0 -10 7 -10 15 0 8 -4 15 -10 15 -5 0 -10 6 -10
13 0 17 -66 98 -74 90 -3 -3 -6 -1 -6 6 0 17 -46 61 -65 61 -8 0 -14 5 -12 11
1 6 -13 19 -31 29 -22 12 -29 20 -20 24 7 3 3 4 -10 2 -12 -2 -20 0 -16 5 3 5
-2 9 -11 9 -9 0 -13 4 -10 10 3 5 0 7 -8 4 -8 -3 -18 0 -22 5 -3 6 -11 9 -16
6 -5 -4 -9 -2 -9 3 0 14 -38 22 -44 8 -2 -6 -5 -4 -5 6 -1 12 -10 16 -38 16
-59 0 -65 1 -57 14 5 7 3 8 -7 2 -21 -13 -51 -16 -44 -4 10 15 -1 12 -15 -5z"/>
<path d="M1035 4513 c-7 -6 -15 -9 -19 -6 -3 4 -6 0 -6 -7 0 -7 -3 -11 -6 -7
-10 10 -36 -22 -28 -34 5 -8 3 -9 -5 -5 -8 5 -14 0 -18 -13 -3 -12 -9 -21 -13
-21 -8 0 -38 -103 -38 -130 0 -8 -3 -25 -6 -37 -2 -13 -1 -25 3 -28 5 -2 7
-16 6 -30 -2 -14 1 -27 6 -31 5 -3 7 -9 4 -14 -3 -5 4 -27 15 -50 11 -22 18
-40 14 -40 -3 0 12 -17 35 -39 29 -28 48 -38 70 -37 17 1 31 6 32 11 0 6 4 1
9 -10 5 -11 9 -14 9 -7 1 6 6 12 12 12 16 0 79 62 79 78 0 6 5 12 11 12 5 0 8
4 5 9 -3 5 1 11 9 15 8 3 17 1 20 -4 4 -6 14 -6 27 1 16 9 23 8 29 -2 7 -11 9
-11 9 1 0 13 1 13 10 0 5 -8 10 -10 10 -5 0 6 16 10 35 11 19 0 35 -4 35 -9 0
-5 6 -5 13 2 10 8 17 7 27 -2 10 -9 11 -9 6 1 -5 8 -1 11 13 9 11 -2 23 -6 27
-10 4 -3 16 -1 27 4 15 8 22 8 28 -2 7 -11 9 -11 9 1 0 13 1 13 10 0 5 -8 10
-10 10 -3 0 12 17 12 35 1 6 -4 17 -3 25 3 21 13 32 11 24 -3 -6 -10 -4 -10 8
0 11 9 18 10 23 2 4 -7 12 -7 25 0 25 13 33 13 24 -2 -5 -7 -3 -8 7 -2 8 5 19
9 24 9 6 0 9 8 9 18 -1 9 2 17 6 17 4 0 11 10 15 23 9 27 8 25 27 68 21 48 32
86 23 77 -5 -4 -15 -2 -23 5 -13 9 -14 9 -8 0 9 -16 -35 -13 -46 2 -4 6 -8 1
-8 -10 0 -13 -3 -16 -8 -8 -4 7 -28 11 -58 11 -27 -1 -55 1 -61 5 -6 4 -14 1
-16 -5 -4 -10 -8 -9 -16 2 -6 8 -11 10 -11 5 0 -6 -9 -11 -20 -12 -12 -1 -18
3 -14 9 4 6 -2 6 -15 -1 -16 -9 -21 -9 -21 1 0 8 -3 9 -8 3 -9 -13 -46 -19
-38 -6 4 6 -4 7 -22 2 -17 -5 -36 -5 -47 1 -13 8 -16 7 -11 -1 9 -15 -7 -14
-22 1 -9 9 -12 8 -12 -7 0 -16 -2 -17 -9 -6 -5 8 -18 12 -30 8 -12 -3 -24 -1
-27 4 -3 5 -12 5 -23 -1 -15 -8 -20 -3 -29 27 -6 20 -9 40 -6 45 3 4 0 8 -6 8
-6 0 -8 5 -5 10 3 6 1 10 -5 10 -6 0 -8 5 -5 10 3 6 1 10 -4 10 -6 0 -11 5
-11 10 0 13 -43 56 -52 53 -5 -2 -8 2 -8 7 0 6 -9 10 -21 10 -11 0 -18 4 -15
8 8 13 -46 9 -59 -5z m32 -156 c-3 -8 1 -14 9 -14 7 0 11 4 8 8 -2 4 0 10 5
13 5 4 12 -3 16 -14 3 -11 10 -20 15 -20 4 0 11 -11 14 -24 3 -13 9 -32 13
-42 5 -13 3 -15 -8 -9 -10 6 -11 5 -3 -4 13 -14 6 -61 -9 -61 -6 0 -7 -3 -4
-7 10 -9 -14 -34 -26 -26 -6 4 -8 0 -5 -8 8 -20 -33 -20 -50 0 -8 9 -11 10 -7
4 3 -7 4 -13 1 -13 -10 0 -35 57 -29 64 4 3 1 6 -6 6 -12 0 -12 47 1 99 5 24
39 54 67 60 2 1 1 -5 -2 -12z"/>
<path d="M4007 4509 c-10 -13 -15 -17 -11 -9 7 13 6 13 -12 0 -29 -23 -46 -40
-39 -40 4 0 -1 -7 -9 -16 -9 -8 -16 -22 -16 -30 0 -8 -4 -13 -8 -10 -4 2 -9
-5 -9 -16 -3 -40 -25 -78 -45 -78 -12 0 -17 -5 -13 -12 4 -7 -1 -4 -9 6 -9 11
-16 15 -16 10 0 -5 -9 -10 -20 -11 -12 -1 -18 3 -14 9 4 6 -2 6 -15 -1 -16 -9
-21 -9 -21 1 0 8 -3 9 -8 3 -9 -13 -46 -19 -38 -6 4 6 -4 7 -22 2 -17 -5 -36
-5 -47 1 -13 8 -16 7 -11 -1 9 -15 -7 -14 -22 1 -9 9 -12 8 -12 -7 0 -16 -2
-17 -9 -6 -5 8 -18 12 -29 9 -10 -3 -27 -1 -37 5 -13 7 -16 6 -11 -2 9 -15 -7
-14 -22 1 -9 9 -12 8 -12 -7 0 -12 -3 -16 -8 -9 -10 16 -105 17 -97 1 4 -7 -1
-3 -9 7 -9 11 -16 15 -16 10 0 -5 -9 -10 -20 -11 -12 -1 -18 3 -14 9 4 7 1 7
-12 0 -11 -6 -23 -10 -27 -10 -14 0 -22 -12 -9 -12 7 0 11 -3 10 -7 -4 -13 24
-73 34 -73 5 0 7 -4 4 -9 -3 -5 2 -29 11 -54 11 -31 21 -43 31 -40 8 3 18 0
23 -8 7 -12 9 -12 9 1 0 13 1 13 10 0 5 -8 10 -10 10 -5 0 6 16 10 35 11 19 0
35 -4 35 -9 0 -5 6 -4 14 2 10 9 16 9 21 1 5 -8 11 -7 22 1 11 10 16 10 23 0
5 -10 9 -10 15 -2 5 9 11 9 23 -1 12 -10 14 -10 8 0 -8 13 19 13 39 0 6 -4 17
-3 25 3 21 13 32 11 24 -3 -5 -9 -2 -9 9 1 14 11 17 11 17 0 0 -9 3 -10 8 -4
9 13 52 15 52 3 0 -6 11 -3 25 6 21 14 24 14 19 1 -5 -11 -2 -13 10 -9 9 3 13
11 9 18 -5 8 -3 8 8 0 8 -6 25 -10 38 -9 17 1 28 -6 40 -27 9 -15 19 -28 24
-28 4 0 7 -7 7 -15 0 -8 4 -15 9 -15 5 0 16 -7 25 -15 8 -8 23 -16 33 -18 10
-1 24 -7 32 -11 9 -6 12 -5 7 2 -3 6 -2 13 4 17 5 3 10 1 10 -6 0 -8 5 -7 17
2 11 10 14 10 9 2 -13 -23 3 -14 38 21 20 18 32 36 29 40 -4 3 -1 6 5 6 7 0
12 7 12 15 0 8 5 15 11 15 6 0 9 7 5 15 -3 8 -2 15 3 15 8 0 10 13 12 63 0 15
5 27 11 27 7 0 7 4 0 13 -5 6 -8 25 -6 41 1 16 -1 37 -7 48 -7 13 -6 18 2 18
8 0 8 4 -1 15 -7 8 -9 15 -4 15 4 0 3 5 -4 12 -7 7 -12 18 -12 26 0 19 -45 83
-53 75 -4 -3 -7 1 -7 11 0 9 -4 14 -10 11 -5 -3 -10 -1 -10 6 0 6 -8 9 -20 6
-13 -3 -20 0 -20 9 0 11 -4 12 -19 4 -14 -7 -20 -7 -23 1 -2 7 -12 1 -21 -12z
m61 -147 c13 11 14 11 7 -1 -6 -11 -4 -13 11 -7 10 4 16 4 12 1 -3 -4 1 -15
10 -26 18 -21 27 -139 10 -139 -6 0 -7 -8 -4 -17 4 -10 4 -14 0 -11 -7 8 -34
-14 -28 -23 2 -3 -3 -6 -11 -6 -8 0 -11 5 -8 11 4 6 0 6 -8 -1 -12 -10 -20 -8
-39 10 -27 23 -30 32 -36 87 -4 39 12 100 27 100 6 0 7 5 3 12 -4 6 -3 8 4 4
6 -3 14 -1 18 6 6 9 9 9 12 0 3 -10 7 -10 20 0z"/>
<path d="M2840 3796 c-6 -6 -10 -16 -10 -23 0 -7 -4 -13 -9 -13 -25 0 -35
-123 -13 -157 8 -13 11 -23 7 -23 -5 0 2 -9 15 -20 12 -11 27 -17 31 -14 5 3
9 1 9 -4 0 -5 7 -9 15 -9 8 0 11 5 8 10 -4 6 3 8 15 5 12 -4 20 -2 16 3 -8 13
5 31 17 23 18 -10 119 -10 119 1 0 6 5 3 10 -5 8 -13 10 -13 10 -1 0 11 4 9
14 -5 13 -17 15 -18 21 -2 5 13 12 15 31 8 20 -8 24 -6 24 8 1 16 1 16 11 0
13 -23 29 -23 29 -1 0 15 2 14 15 -3 9 -12 14 -14 15 -6 0 7 5 10 10 7 6 -4 8
-12 4 -18 -3 -7 0 -5 8 3 9 11 25 13 53 10 22 -3 62 -2 88 1 37 4 50 2 57 -10
8 -14 9 -14 10 3 0 12 5 16 15 12 8 -3 22 -9 30 -12 10 -4 15 0 15 12 0 17 1
16 15 -2 9 -12 14 -14 15 -6 0 7 5 10 10 7 6 -4 8 -12 4 -18 -3 -7 1 -4 9 5 8
10 16 16 18 14 11 -10 99 -12 99 -2 0 6 5 4 10 -4 8 -13 10 -13 10 -1 0 11 4
9 14 -5 13 -17 15 -18 21 -2 5 13 12 15 31 8 20 -8 24 -6 24 8 0 13 2 14 9 3
5 -8 30 -14 64 -15 30 0 53 2 50 7 -2 4 0 7 5 7 6 0 13 -8 17 -17 6 -17 7 -17
21 1 8 11 14 15 14 10 0 -6 11 -10 25 -10 14 0 25 4 25 9 0 4 5 5 10 2 6 -4 8
-12 4 -18 -3 -7 0 -5 8 4 9 11 22 13 45 9 25 -6 30 -4 25 8 -3 9 -1 13 5 9 8
-5 11 24 11 96 l-1 102 -76 0 c-42 0 -88 3 -103 7 -17 4 -30 2 -34 -4 -5 -7
-2 -8 6 -3 9 6 11 4 6 -4 -6 -9 -13 -8 -29 6 -11 10 -17 13 -14 7 8 -13 -20
-28 -28 -15 -8 13 -55 19 -62 8 -4 -6 -1 -7 7 -2 9 6 11 4 6 -4 -6 -9 -13 -8
-29 6 -11 10 -17 13 -14 7 4 -7 0 -15 -9 -18 -8 -3 -13 -2 -10 3 3 5 -1 11 -9
15 -8 3 -17 0 -21 -6 -5 -7 -2 -8 6 -3 9 6 11 4 6 -4 -6 -9 -13 -8 -29 6 -11
10 -17 13 -14 7 4 -7 0 -15 -9 -18 -8 -3 -13 -2 -10 3 3 5 -1 11 -9 15 -8 3
-17 0 -21 -6 -5 -7 -2 -8 6 -3 9 6 11 4 6 -4 -6 -9 -13 -8 -29 6 -11 10 -17
13 -14 7 4 -7 0 -15 -9 -18 -8 -3 -13 -2 -10 3 3 5 -1 11 -9 15 -8 3 -17 0
-21 -6 -5 -7 -2 -8 6 -3 9 6 11 4 6 -4 -6 -9 -13 -8 -29 6 -11 10 -17 13 -14
7 4 -7 0 -15 -9 -18 -8 -3 -13 -2 -10 3 3 5 -1 11 -9 15 -8 3 -17 0 -21 -6 -5
-7 -2 -8 6 -3 9 6 11 4 6 -4 -6 -9 -13 -8 -29 6 -11 10 -17 13 -14 7 4 -7 0
-15 -9 -18 -8 -3 -13 -2 -10 3 3 5 -1 11 -9 15 -8 3 -17 0 -21 -6 -5 -7 -2 -8
6 -3 9 6 11 4 6 -4 -6 -9 -13 -8 -29 6 -11 10 -17 13 -14 7 4 -7 0 -15 -9 -18
-8 -3 -13 -2 -10 3 3 5 -1 11 -9 15 -8 3 -17 0 -21 -6 -5 -7 -2 -8 6 -3 9 6
11 4 6 -4 -6 -9 -13 -8 -29 6 -11 10 -17 13 -14 7 4 -7 0 -15 -9 -18 -8 -3
-13 -2 -10 3 3 5 -1 11 -9 15 -8 3 -17 0 -21 -6 -5 -7 -2 -8 6 -3 9 6 11 4 6
-4 -6 -9 -13 -8 -29 6 -11 10 -17 13 -14 7 4 -7 0 -15 -9 -18 -8 -3 -13 -2
-10 3 3 5 -1 11 -9 15 -8 3 -17 0 -21 -6 -5 -7 -2 -8 6 -3 9 6 11 4 6 -4 -6
-9 -13 -8 -29 6 -11 10 -17 13 -14 7 4 -7 0 -15 -9 -18 -8 -3 -13 -2 -10 3 3
5 -1 11 -9 15 -8 3 -17 0 -21 -6 -5 -7 -2 -8 6 -3 9 6 11 4 6 -4 -6 -9 -13 -8
-29 6 -11 10 -17 13 -14 7 4 -7 0 -15 -9 -18 -8 -3 -13 -2 -10 3 3 5 -1 11 -9
15 -8 3 -17 0 -21 -6 -5 -7 -2 -8 6 -3 9 6 11 4 6 -4 -6 -9 -13 -8 -29 6 -11
10 -17 13 -14 7 8 -13 -17 -27 -28 -16 -6 7 -10 8 -36 11 -5 0 -7 7 -3 14 5 7
0 6 -11 -3 -10 -8 -16 -10 -12 -4 8 14 -39 14 -53 0z m210 -212 c0 -8 -19 -13
-24 -6 -3 5 1 9 9 9 8 0 15 -2 15 -3z m640 0 c0 -8 -19 -13 -24 -6 -3 5 1 9 9
9 8 0 15 -2 15 -3z"/>
<path d="M1037 3787 c4 -6 1 -8 -8 -5 -33 13 -45 -14 -43 -102 2 -109 1 -107
20 -114 8 -3 12 -2 9 4 -3 6 -1 10 4 10 6 0 11 -4 11 -8 0 -5 7 -9 15 -9 8 0
12 4 9 9 -9 14 9 9 28 -9 16 -15 18 -15 13 -1 -5 11 -1 16 12 15 10 -1 21 -6
25 -12 5 -6 8 -5 8 3 0 7 5 10 10 7 6 -4 8 -12 4 -18 -3 -7 0 -5 8 3 15 17
118 21 130 5 5 -6 8 -5 8 3 0 7 5 10 10 7 6 -4 8 -12 4 -18 -3 -7 0 -5 8 3 15
17 118 21 130 5 5 -6 8 -5 8 3 0 7 5 10 10 7 6 -4 8 -12 4 -18 -3 -7 0 -5 8 3
16 19 175 19 170 0 -1 -6 2 -9 8 -5 5 3 10 13 10 22 0 8 6 13 13 10 9 -3 12
20 14 92 2 88 0 98 -19 110 -11 7 -17 8 -14 3 3 -6 -1 -12 -9 -16 -8 -3 -17
-1 -20 4 -3 4 -31 7 -63 6 -31 -1 -69 2 -84 5 -17 5 -30 3 -34 -3 -5 -7 -2 -8
6 -3 9 6 11 4 6 -4 -6 -9 -13 -8 -29 6 -11 10 -17 13 -14 7 8 -13 -20 -28 -28
-15 -2 5 -49 8 -102 7 -54 -1 -110 2 -125 6 -17 4 -30 2 -34 -4 -5 -7 -2 -8 6
-3 9 6 11 4 6 -4 -6 -9 -13 -8 -29 6 -11 10 -17 13 -14 7 8 -13 -20 -28 -28
-15 -2 5 -14 11 -25 14 -13 3 -18 1 -13 -6z"/>
<path d="M658 3726 c-30 -33 -35 -69 -16 -113 15 -32 38 -59 38 -44 0 6 7 8
15 5 13 -5 46 17 45 31 0 3 0 6 1 8 6 13 3 77 -3 77 -4 0 -8 7 -8 16 0 20 -30
52 -31 32 0 -9 -3 -8 -7 3 -6 13 -12 10 -34 -15z"/>
<path d="M4420 3750 c-1 -8 -2 -18 -1 -22 0 -4 -5 -5 -12 -3 -6 3 -17 -6 -24
-20 -6 -14 -7 -23 -2 -20 4 3 6 -8 4 -25 -4 -36 14 -84 34 -88 50 -11 79 25
76 95 -2 39 -25 79 -39 66 -3 -4 -6 -1 -6 6 0 7 -4 10 -9 7 -5 -4 -12 0 -14 6
-4 9 -6 9 -7 -2z"/>
<path d="M813 3732 c-17 -14 -21 -27 -21 -71 1 -34 7 -61 17 -73 17 -19 61
-25 61 -7 0 5 6 7 13 3 6 -4 9 -4 5 1 -4 4 -3 14 3 22 6 7 9 13 5 13 -3 0 -1
11 4 25 5 14 6 25 2 25 -4 0 -9 12 -10 26 -2 31 -28 60 -35 41 -4 -9 -6 -9 -6
1 -1 16 -12 15 -38 -6z"/>
<path d="M4239 3708 c-12 -24 -15 -38 -8 -38 8 0 8 -4 -1 -15 -10 -12 -10 -15
1 -15 12 0 12 -2 1 -9 -11 -6 -7 -15 17 -40 17 -17 31 -27 31 -21 0 6 4 8 10
5 5 -3 18 -1 27 4 10 6 14 11 9 11 -5 0 -4 6 2 13 6 6 11 15 11 20 1 4 1 8 2
10 6 21 5 37 -3 37 -6 0 -8 9 -5 20 3 11 1 20 -5 20 -5 0 -6 5 -3 10 3 6 -1
10 -10 10 -9 0 -14 3 -12 8 3 4 -6 7 -20 7 -19 0 -30 -9 -44 -37z"/>
<path d="M998 3303 c-11 -13 -14 -42 -14 -108 2 -102 9 -123 34 -103 14 11 15
10 9 -7 -6 -18 -6 -18 6 -4 9 12 18 14 35 8 17 -7 22 -5 22 8 0 14 2 14 15 -3
11 -14 14 -15 15 -4 0 13 1 13 10 0 7 -11 10 -11 10 -2 0 7 5 10 10 7 6 -4 8
-12 4 -18 -3 -7 0 -5 8 3 15 17 118 21 130 5 5 -6 8 -5 8 3 0 7 5 10 10 7 6
-4 8 -12 4 -18 -3 -7 0 -5 8 3 7 8 24 14 38 13 14 0 38 -1 53 -2 19 -1 26 -5
21 -13 -4 -7 -3 -8 4 -4 7 4 12 15 12 24 0 13 2 13 15 -4 8 -10 15 -14 15 -8
0 8 14 10 38 8 20 -3 52 -6 69 -8 18 -2 30 0 27 5 -3 5 0 9 5 9 6 0 11 -4 11
-9 0 -5 7 -12 16 -15 14 -6 15 -4 4 9 -11 13 -11 16 1 13 8 -2 17 -7 21 -13 5
-6 8 -5 8 4 0 9 4 10 13 3 20 -16 39 17 27 48 -4 11 -9 47 -12 78 -1 17 -6 32
-11 32 -4 0 -5 5 -2 10 11 18 -6 50 -26 50 -10 0 -19 -5 -19 -12 0 -6 -7 -3
-16 8 -8 10 -13 13 -9 7 3 -7 3 -13 -2 -14 -4 0 -16 -2 -25 -4 -10 -2 -21 2
-25 7 -4 7 -1 8 7 3 9 -6 11 -4 6 4 -6 9 -12 8 -26 -4 -14 -12 -20 -13 -26 -4
-5 8 -3 10 6 4 9 -6 11 -4 5 4 -5 9 -11 9 -17 3 -6 -6 -22 -7 -39 -2 -16 5
-27 5 -24 0 3 -4 -19 -7 -47 -5 -30 2 -59 -2 -67 -8 -11 -9 -13 -9 -8 0 9 14
-52 15 -70 1 -7 -6 -14 -5 -19 3 -5 8 -3 9 6 4 9 -6 11 -4 6 4 -6 9 -12 8 -26
-4 -14 -12 -20 -13 -26 -4 -5 8 -3 10 6 4 9 -6 11 -4 5 4 -5 9 -11 9 -17 3 -6
-6 -22 -7 -39 -2 -16 5 -27 5 -24 0 2 -4 -4 -10 -15 -13 -11 -3 -18 -2 -15 3
3 4 -4 10 -15 13 -11 3 -17 1 -14 -4 3 -6 -8 -7 -26 -4 -20 4 -29 2 -25 -5 3
-6 0 -7 -9 -4 -9 3 -13 10 -10 15 9 15 -2 10 -18 -8z"/>
<path d="M3470 3310 c-7 -4 -20 -6 -28 -2 -11 4 -13 2 -7 -9 8 -12 6 -12 -8 0
-9 7 -18 10 -18 5 -1 -5 -3 -18 -5 -29 -2 -11 -5 -37 -7 -57 -2 -21 -6 -40 -9
-44 -4 -3 -4 -12 -1 -20 3 -8 1 -14 -4 -14 -19 0 -8 -41 12 -45 55 -11 75 -11
75 -2 0 5 7 4 15 -3 12 -10 15 -9 16 6 0 18 1 18 9 -1 5 -11 9 -14 9 -7 1 7 6
10 11 7 6 -4 8 -12 4 -18 -3 -7 1 -4 9 6 11 14 20 16 34 9 10 -5 29 -6 43 -2
17 4 29 1 38 -9 10 -14 11 -14 5 3 -6 18 -5 18 23 0 15 -11 25 -13 21 -6 -5 6
-5 12 0 13 4 0 16 2 26 4 14 3 17 -1 13 -13 -6 -16 -5 -16 7 -1 9 12 18 14 35
8 17 -7 22 -5 22 9 0 13 2 14 9 3 5 -8 30 -14 64 -15 30 0 53 2 50 7 -2 4 1 7
6 7 6 0 11 -4 11 -10 0 -5 5 -10 11 -10 5 0 8 4 5 8 -3 5 2 9 10 9 9 0 13 -6
9 -15 -4 -12 -3 -13 10 -2 9 7 32 10 59 8 25 -3 43 -1 40 4 -3 4 -1 8 5 8 5 0
12 -6 14 -12 4 -10 6 -10 6 0 1 6 6 12 12 12 5 0 7 -5 3 -12 -4 -7 -3 -8 4 -4
15 9 14 214 -1 223 -6 4 -13 1 -15 -6 -3 -8 -9 -6 -19 6 -8 10 -12 13 -9 7 6
-12 -125 -11 -145 2 -8 4 -9 3 -5 -4 10 -16 -16 -15 -33 1 -11 10 -12 9 -6 -2
6 -10 4 -13 -7 -8 -9 3 -21 0 -28 -6 -9 -8 -11 -9 -7 -1 8 15 -41 25 -50 11
-4 -6 -1 -7 7 -2 9 5 11 4 6 -4 -4 -6 -13 -8 -19 -4 -21 13 -47 13 -47 1 0 -6
-7 -3 -16 8 -8 10 -13 14 -10 8 3 -7 -1 -15 -10 -18 -8 -3 -13 -2 -10 3 3 5
-3 11 -14 14 -11 3 -18 2 -15 -3 3 -4 -2 -10 -10 -14 -8 -3 -17 0 -21 6 -5 7
-2 8 6 3 9 -6 11 -4 6 4 -6 9 -12 8 -26 -4 -14 -12 -20 -13 -26 -4 -5 8 -3 10
6 4 9 -6 11 -4 5 4 -5 9 -11 9 -17 3 -6 -6 -22 -7 -39 -2 -19 6 -27 5 -23 -1
6 -11 -34 -8 -51 3 -6 4 -17 3 -25 -2z"/>
<path d="M4426 3308 c3 -4 -1 -8 -9 -8 -49 0 -53 -139 -5 -169 16 -10 19 -10
12 1 -6 10 -5 10 7 2 10 -8 18 -6 31 7 9 9 14 20 11 23 -4 3 -1 6 5 6 18 0 15
95 -3 110 -8 7 -12 16 -9 21 3 5 -3 6 -12 2 -10 -4 -15 -2 -11 4 3 5 0 10 -8
10 -8 0 -12 -4 -9 -9z"/>
<path d="M658 3290 c-9 -10 -14 -21 -10 -24 3 -3 1 -6 -4 -6 -11 0 -10 -54 1
-87 4 -13 12 -23 17 -23 6 0 7 -7 4 -16 -5 -13 -4 -14 7 -6 10 9 17 8 27 -1
10 -9 11 -9 6 1 -6 11 4 16 26 14 3 -1 9 5 12 13 3 8 0 15 -6 15 -9 0 -9 3 0
12 14 14 16 88 2 88 -5 0 -10 7 -10 15 0 8 -3 15 -7 16 -5 0 -17 2 -28 4 -11
1 -27 -5 -37 -15z"/>
<path d="M820 3300 c-8 -5 -11 -10 -7 -10 5 0 1 -7 -8 -16 -20 -21 -18 -111 2
-119 8 -2 12 -8 10 -12 -3 -5 9 -8 26 -8 23 0 35 7 48 29 19 31 17 62 -7 114
-13 29 -18 31 -32 20 -12 -10 -14 -10 -8 0 9 14 -3 16 -24 2z"/>
<path d="M4253 3299 c-6 -8 -13 -21 -15 -29 -2 -8 -7 -18 -13 -22 -6 -5 -5
-11 4 -17 9 -6 10 -11 2 -15 -7 -5 -7 -15 -1 -31 5 -14 7 -25 4 -25 -3 0 1 -7
10 -15 18 -18 30 -20 20 -2 -6 10 -4 10 7 0 19 -18 42 -16 35 3 -3 8 -2 12 4
9 15 -9 28 27 25 73 -3 48 -40 96 -55 72 -6 -10 -8 -10 -12 0 -3 9 -6 9 -15
-1z"/>
<path d="M3900 2897 c0 -10 -4 -16 -9 -12 -5 3 -12 1 -16 -5 -4 -6 -10 -8 -15
-5 -4 3 -10 -5 -13 -16 -3 -12 -10 -18 -16 -14 -6 3 -11 0 -11 -7 0 -7 -9 -24
-19 -38 -19 -24 -20 -24 -41 -5 -21 19 -21 19 -14 -1 7 -16 5 -17 -8 -7 -8 7
-18 10 -21 6 -4 -3 -13 0 -22 7 -13 11 -14 10 -9 -4 5 -12 2 -15 -10 -10 -9 3
-13 11 -10 18 3 6 -1 3 -9 -7 -8 -10 -18 -14 -20 -9 -6 9 -65 8 -74 -2 -4 -3
-15 2 -26 11 -11 10 -18 13 -14 7 4 -7 -5 -11 -23 -12 -17 0 -30 5 -30 11 0 9
-2 9 -8 1 -9 -15 -64 -15 -55 0 5 7 2 7 -8 -1 -16 -13 -36 -12 -58 1 -11 7
-13 5 -8 -6 5 -14 1 -15 -24 -8 -18 5 -27 5 -24 -1 4 -5 -1 -12 -10 -15 -8 -4
-14 -14 -13 -23 2 -9 -3 -15 -10 -13 -6 1 -11 -1 -11 -5 4 -23 -2 -53 -10 -49
-4 3 -13 -13 -20 -35 -8 -26 -16 -37 -24 -33 -7 4 -9 4 -5 -1 4 -4 2 -15 -5
-23 -10 -13 -9 -15 6 -9 9 4 17 2 17 -5 0 -7 5 -6 15 2 10 9 15 9 15 1 0 -6 5
-11 11 -11 5 0 8 4 5 8 -3 5 1 9 9 9 8 0 15 -7 15 -16 0 -14 2 -14 10 -1 5 8
10 11 10 6 0 -5 7 -3 15 4 12 10 15 10 15 0 0 -10 3 -10 15 0 10 9 15 9 15 1
0 -6 5 -11 11 -11 5 0 8 4 5 8 -3 5 1 9 9 9 8 0 15 -7 15 -16 0 -14 2 -14 10
-1 5 8 10 11 10 6 0 -5 7 -3 15 4 12 10 15 10 15 0 0 -10 3 -10 15 0 10 9 15
9 15 1 0 -6 5 -11 11 -11 5 0 8 4 5 8 -3 5 1 9 9 9 8 0 15 -7 15 -16 0 -14 2
-14 10 -1 5 8 10 11 10 6 0 -5 7 -3 15 4 12 10 15 10 15 0 0 -10 3 -10 15 0
10 9 15 9 15 1 0 -6 5 -11 11 -11 5 0 8 4 5 8 -3 5 1 9 9 9 8 0 15 -7 15 -16
0 -14 2 -14 10 -1 5 8 10 11 10 6 0 -5 7 -3 16 5 13 10 17 10 23 0 7 -10 13
-10 30 -2 13 7 21 8 21 2 0 -6 6 -8 14 -5 12 5 21 -10 31 -54 8 -32 40 -89 64
-114 29 -29 90 -52 76 -27 -7 11 -6 12 6 2 12 -10 20 -9 39 4 18 12 22 13 16
2 -4 -8 -1 -6 7 3 8 10 16 15 19 13 3 -3 11 8 18 25 7 16 16 30 20 30 4 0 11
10 15 23 11 32 12 37 15 40 7 9 11 53 11 117 0 85 -2 96 -19 128 -7 12 -9 22
-5 22 4 0 1 6 -8 13 -16 12 -19 18 -19 37 0 6 -5 10 -11 10 -7 0 -19 8 -28 18
-26 27 -56 41 -72 32 -8 -6 -16 -4 -21 3 -5 8 -8 6 -8 -6z m69 -154 c10 9 11
8 5 -7 -5 -13 -4 -17 4 -12 8 4 12 0 12 -11 0 -11 6 -25 13 -32 10 -11 9 -12
-3 -6 -12 7 -13 6 -3 -6 20 -25 7 -95 -25 -131 -16 -19 -38 -25 -27 -8 3 6 -1
7 -10 4 -8 -4 -21 -1 -29 5 -7 6 -17 7 -21 3 -5 -4 -5 -2 -2 4 4 7 0 17 -8 24
-8 7 -12 16 -9 21 3 5 0 18 -6 29 -7 12 -7 20 -1 20 5 0 8 9 6 20 -2 11 0 20
6 20 5 0 8 3 8 8 -4 24 4 39 29 54 23 15 29 15 38 3 8 -11 13 -12 23 -2z m-84
-351 c-3 -3 -11 0 -18 7 -9 10 -8 11 6 5 10 -3 15 -9 12 -12z"/>
<path d="M1112 2882 c-7 -9 -10 -11 -7 -5 4 8 1 11 -9 7 -9 -3 -13 -10 -10
-15 3 -5 -2 -9 -11 -9 -9 0 -13 -5 -10 -10 3 -6 -1 -13 -9 -16 -9 -3 -13 -10
-10 -15 3 -5 0 -9 -6 -9 -7 0 -9 -7 -6 -16 3 -8 2 -12 -4 -9 -11 7 -23 -35
-24 -82 -1 -18 -3 -33 -6 -33 -3 0 -5 -20 -5 -45 0 -25 2 -45 5 -45 3 0 7 -14
8 -31 1 -17 9 -43 17 -59 8 -15 11 -30 8 -34 -4 -3 -1 -6 6 -6 7 0 9 -5 5 -12
-4 -6 -3 -8 3 -5 6 4 19 -5 29 -18 10 -14 25 -25 32 -25 7 0 10 -4 7 -10 -8
-12 5 -13 25 -1 8 6 19 7 24 3 20 -12 44 -9 39 5 -3 8 -2 13 3 12 21 -4 35 2
29 11 -3 6 1 10 9 10 9 0 16 5 16 10 0 6 9 21 21 33 11 12 18 30 15 39 -2 10
0 18 6 18 5 0 6 5 3 10 -3 6 -1 10 5 10 6 0 8 5 5 10 -3 6 -1 10 5 10 6 0 9 4
5 9 -3 5 -1 12 5 16 5 3 10 2 10 -2 0 -10 53 -9 69 1 5 4 12 2 15 -2 6 -10 48
-8 65 2 5 4 12 2 15 -2 6 -10 48 -8 65 2 5 4 12 2 15 -2 6 -10 48 -8 65 2 5 4
12 2 15 -2 6 -10 48 -8 65 2 5 4 12 2 15 -2 6 -10 48 -8 65 2 5 4 12 2 15 -2
6 -10 36 -9 54 2 6 4 12 3 12 -2 0 -5 6 -9 13 -9 8 0 12 9 11 21 -1 12 -3 25
-3 29 -1 5 -5 5 -11 2 -5 -3 -10 3 -10 14 0 12 -5 21 -11 21 -6 0 -9 6 -7 12
3 7 -1 19 -9 26 -7 8 -11 18 -8 23 4 5 2 9 -4 9 -10 0 -27 38 -23 53 1 4 -6 7
-16 7 -10 0 -24 6 -31 13 -11 10 -12 9 -6 -2 6 -11 4 -13 -8 -8 -10 4 -17 1
-17 -6 0 -7 -7 -4 -14 6 -9 12 -15 14 -18 6 -3 -8 -10 -9 -23 -2 -21 11 -48 6
-40 -6 2 -5 -7 -6 -20 -3 -14 2 -28 8 -30 13 -3 4 -12 6 -20 3 -8 -4 -13 -10
-10 -14 3 -5 -9 -5 -27 1 -41 11 -41 11 -32 -3 6 -10 4 -10 -8 0 -11 9 -18 10
-23 2 -3 -6 -10 -8 -15 -5 -5 3 -11 1 -15 -5 -3 -5 -12 -10 -18 -10 -7 0 -6 4
3 11 12 8 10 9 -10 7 -14 -2 -28 -7 -32 -13 -5 -6 -8 -6 -8 1 0 13 -58 13 -80
-1 -8 -4 -12 -5 -8 0 4 4 -2 16 -14 26 -11 11 -17 19 -13 19 4 0 -2 8 -13 19
-12 10 -20 20 -17 22 2 3 -6 11 -18 18 -21 13 -21 13 -7 -5 14 -18 14 -18 -8
0 -26 23 -49 28 -58 15 -4 -6 -10 -6 -18 0 -8 7 -16 5 -24 -7z m63 -139 c9 4
14 3 10 -3 -3 -6 1 -10 9 -10 9 0 16 -9 16 -20 0 -11 3 -20 8 -20 4 0 8 -23 9
-52 0 -38 -4 -56 -16 -66 -9 -7 -10 -10 -3 -7 11 6 11 3 1 -14 -10 -14 -15
-17 -21 -8 -6 9 -8 8 -9 -3 0 -11 -2 -11 -6 -2 -4 10 -8 10 -19 1 -11 -9 -14
-9 -14 0 0 7 -4 10 -9 7 -12 -8 -34 21 -26 34 3 5 2 10 -3 10 -8 0 -10 99 -2
108 1 1 3 6 4 11 2 18 41 48 47 38 4 -5 14 -7 24 -4z"/>
<path d="M682 1774 c-17 -12 -20 -19 -12 -34 6 -10 6 -21 1 -24 -9 -6 -7 -48
3 -65 4 -5 2 -12 -2 -15 -10 -6 -8 -48 2 -65 4 -5 2 -12 -2 -15 -10 -6 -8 -48
2 -65 4 -5 2 -12 -2 -15 -10 -6 -8 -48 2 -65 4 -5 2 -12 -2 -15 -8 -5 -9 -29
-2 -61 1 -5 2 -14 0 -20 -4 -26 -1 -206 5 -215 3 -5 2 -10 -2 -10 -9 0 -7 -84
2 -107 2 -7 1 -13 -3 -13 -4 0 -7 -23 -7 -50 0 -28 2 -50 5 -50 3 0 6 -12 7
-27 0 -16 4 -41 8 -58 4 -16 8 -36 8 -42 0 -7 4 -13 9 -13 5 0 6 -4 3 -10 -3
-5 -1 -10 6 -10 7 0 10 -3 6 -6 -3 -4 4 -15 16 -26 12 -11 16 -17 10 -13 -23
11 -14 -4 28 -47 25 -26 51 -43 65 -43 13 -1 27 -5 31 -9 5 -5 2 -6 -6 -1 -10
5 -12 4 -7 -3 5 -9 13 -9 26 -2 25 13 33 13 24 -3 -5 -8 -2 -8 9 2 14 11 17
11 17 0 0 -11 2 -11 8 -2 4 7 18 11 30 8 13 -2 20 0 17 6 -4 5 -3 9 2 9 4 0 8
38 8 85 0 47 -4 85 -8 85 -5 0 -5 5 -1 11 5 9 -1 10 -20 5 -15 -4 -25 -3 -23
1 3 4 -5 8 -18 8 -13 0 -21 -3 -19 -7 2 -4 0 -10 -6 -13 -6 -4 -9 -2 -8 3 2 6
0 9 -4 9 -4 -1 -14 7 -23 18 -9 11 -14 13 -10 5 4 -8 -2 -4 -13 10 -11 13 -19
28 -16 31 2 4 -1 9 -8 11 -8 3 -12 62 -13 209 -1 211 1 243 16 233 5 -3 9 -1
9 3 0 5 12 8 28 7 15 -1 27 -3 27 -4 0 -1 15 -3 33 -4 17 -2 32 0 32 4 0 5 8
6 18 3 16 -4 18 4 16 94 -2 114 -1 112 -14 93 -9 -13 -11 -13 -19 -1 -8 12
-12 12 -24 2 -10 -8 -17 -9 -22 -1 -4 7 -12 7 -25 0 -13 -7 -21 -7 -26 1 -4 8
-9 7 -15 -2 -7 -11 -9 -9 -9 6 0 17 -2 17 -10 5 -12 -19 -12 -22 -15 140 -2
136 -9 168 -31 149 -11 -9 -14 -8 -14 1 0 10 -3 10 -15 0 -12 -10 -15 -10 -15
0 0 9 -4 9 -17 -1 -11 -10 -14 -10 -9 -1 10 16 5 15 -22 -4z"/>
<path d="M3120 1775 c-11 -13 -13 -98 -12 -433 2 -422 4 -495 14 -522 10 -24
21 -74 20 -82 -1 -5 3 -8 8 -8 5 0 10 -3 9 -7 -2 -17 14 -53 24 -53 6 0 7 -3
4 -7 -4 -3 5 -16 18 -29 14 -13 25 -28 25 -34 0 -6 5 -8 10 -5 6 3 10 1 10 -5
0 -6 5 -8 10 -5 6 3 10 3 10 -2 0 -4 11 -13 25 -20 19 -8 23 -8 18 0 -4 7 0 6
10 -1 9 -8 25 -11 38 -7 13 5 19 3 15 -3 -4 -6 2 -8 14 -5 11 3 20 9 20 14 0
5 3 8 8 8 31 -5 33 2 31 106 -1 96 -3 104 -19 95 -11 -6 -21 -5 -28 2 -8 8
-12 8 -12 2 0 -6 -10 -10 -22 -8 -13 1 -27 3 -31 3 -5 1 -5 7 -1 14 5 8 2 8
-9 -2 -15 -12 -17 -11 -17 3 0 10 -4 14 -10 11 -5 -3 -10 0 -10 9 0 8 -5 16
-11 18 -5 2 -11 10 -12 18 -2 8 -6 21 -10 28 -5 6 -6 16 -3 21 4 5 0 12 -6 14
-7 3 -8 6 -3 6 6 1 8 27 5 71 -3 39 -2 79 2 90 4 11 4 20 -1 20 -12 0 -8 33 4
42 7 5 7 8 0 8 -8 0 -12 109 -4 130 1 3 1 8 0 13 -1 9 1 9 113 7 74 -1 88 1
83 13 -3 8 -3 18 0 21 7 7 4 146 -3 158 -3 5 -10 5 -16 1 -17 -9 -78 -11 -84
-1 -3 4 -10 8 -15 8 -6 0 -7 -6 -3 -12 5 -9 2 -9 -9 1 -14 11 -17 11 -17 0 0
-11 -2 -11 -10 1 -7 11 -10 12 -10 2 0 -11 -2 -11 -13 0 -20 20 -25 40 -16 66
5 12 5 22 0 22 -12 0 -9 33 4 42 7 5 7 8 0 8 -6 0 -9 31 -8 76 l2 76 -29 -4
c-21 -3 -30 0 -30 9 0 7 -5 13 -11 13 -5 0 -8 -4 -5 -9 7 -11 -27 -9 -35 2 -3
4 -12 1 -19 -8z"/>
<path d="M4014 1662 c1 -64 -3 -123 -9 -131 -7 -10 -7 -13 0 -9 6 4 10 -23 10
-73 0 -46 -4 -79 -10 -79 -7 0 -7 -3 0 -8 14 -10 15 -152 1 -152 -7 0 -7 -3
-1 -8 14 -10 14 -145 1 -154 -7 -5 -7 -8 -1 -8 12 0 12 -370 0 -390 -5 -8 -4
-11 2 -7 7 4 10 -5 8 -25 -3 -44 5 -74 16 -56 7 11 11 10 19 -2 6 -9 10 -10
10 -3 0 14 40 13 40 -2 0 -5 4 -4 9 4 8 12 13 12 24 3 13 -11 15 25 17 270 2
344 2 348 12 348 4 0 7 3 6 8 -3 16 15 61 23 56 5 -3 9 -1 9 5 0 6 10 15 21
22 15 7 19 8 15 0 -5 -7 -1 -9 8 -5 9 3 14 10 11 14 -3 5 4 6 15 3 11 -3 20
-10 20 -15 0 -5 5 -6 11 -3 11 7 60 -40 51 -49 -3 -3 0 -6 6 -6 7 0 12 -9 12
-19 0 -11 5 -23 10 -26 8 -5 7 -11 -1 -21 -6 -8 -7 -14 -2 -14 5 0 9 -9 10
-20 1 -11 -2 -18 -6 -16 -4 3 -6 -5 -5 -17 1 -12 3 -22 4 -22 1 0 2 -37 3 -82
1 -50 -2 -83 -8 -83 -7 0 -7 -3 0 -8 12 -9 16 -74 4 -66 -5 3 -6 -5 -1 -18 9
-29 9 -59 -1 -76 -5 -6 -4 -12 0 -12 5 0 8 -22 8 -49 0 -27 -2 -48 -5 -46 -3
2 -6 -5 -6 -15 0 -10 3 -17 7 -14 4 2 10 -3 13 -12 3 -8 10 -13 15 -10 5 4 12
0 14 -6 4 -10 6 -9 6 1 1 11 4 11 18 0 15 -12 16 -12 9 5 -6 19 -6 19 12 3 17
-15 20 -15 38 -1 10 8 14 13 7 9 -9 -4 -8 2 2 21 9 18 11 34 5 50 -6 15 -5 24
3 28 8 4 8 8 2 11 -6 3 -9 22 -7 43 4 53 4 101 -1 144 -2 21 1 40 7 43 7 3 8
7 1 10 -6 3 -9 22 -7 43 4 57 4 104 -1 140 -2 18 0 35 4 38 5 3 7 10 3 15 -5
9 -8 24 -18 85 -1 7 -8 19 -15 28 -11 13 -11 16 -1 16 10 0 9 5 -2 18 -9 9
-19 27 -22 40 -4 12 -12 22 -17 22 -6 0 -8 4 -5 8 3 5 -4 14 -14 22 -10 8 -17
17 -14 22 3 4 -6 13 -20 20 -14 6 -26 15 -26 20 0 5 -4 7 -9 4 -5 -4 -11 -1
-13 6 -4 10 -20 15 -68 20 -8 0 -18 6 -22 12 -5 7 -8 3 -8 -8 0 -11 -3 -16 -7
-13 -3 4 -13 1 -21 -6 -13 -10 -14 -9 -8 1 7 11 4 11 -12 1 -12 -7 -19 -16
-16 -20 5 -8 -22 -6 -31 2 -8 8 -9 164 -2 176 4 6 1 14 -5 17 -9 4 -10 8 -2
11 10 5 10 25 -1 81 -5 22 -55 41 -55 21 0 -5 -7 -4 -15 3 -12 10 -15 10 -15
-1 0 -11 -2 -11 -10 1 -8 12 -10 12 -10 1 0 -10 -3 -11 -13 -3 -11 9 -13 -10
-13 -106z"/>
<path d="M1535 1491 c8 -13 -12 -24 -27 -15 -22 14 -57 13 -68 -1 -13 -16 -20
-245 -7 -245 5 0 5 -6 1 -12 -12 -19 -12 -48 -1 -48 5 0 4 -7 -3 -15 -10 -12
-10 -15 1 -15 9 0 10 -3 4 -8 -12 -9 -14 -62 -2 -62 4 0 5 -5 2 -11 -4 -6 -8
-52 -9 -102 -2 -55 -7 -92 -14 -95 -6 -2 -9 -9 -6 -17 3 -7 -8 -28 -25 -46
-17 -17 -31 -28 -31 -24 0 4 -6 2 -14 -4 -15 -12 -75 3 -88 23 -5 7 -8 7 -8 1
0 -5 -9 3 -19 19 -11 17 -18 33 -15 38 3 4 1 8 -3 8 -15 0 -23 176 -9 198 4 7
4 12 -1 12 -10 0 -9 133 1 149 4 6 4 11 -1 11 -10 0 -10 91 0 108 5 6 5 12 0
12 -10 0 -9 52 1 68 4 7 2 12 -4 12 -6 0 -8 5 -5 10 8 13 -4 50 -16 50 -6 0
-8 -4 -5 -8 6 -11 -34 -9 -51 1 -8 5 -13 3 -13 -5 0 -10 -3 -9 -9 1 -16 25
-39 -5 -38 -47 1 -21 -2 -43 -7 -50 -4 -6 -4 -12 1 -12 10 0 9 -52 -1 -68 -4
-7 -4 -12 1 -12 10 0 8 -173 -1 -189 -4 -6 -4 -11 1 -11 4 0 7 -48 7 -107 -1
-60 1 -112 4 -117 3 -6 7 -25 8 -44 1 -19 7 -39 13 -45 6 -6 11 -19 11 -29 0
-10 5 -18 11 -18 5 0 8 -4 4 -9 -3 -5 -1 -12 5 -16 6 -4 8 -11 5 -16 -4 -5 -1
-9 4 -9 6 0 11 -7 11 -16 0 -8 5 -12 10 -9 6 3 10 -1 10 -9 0 -9 5 -16 10 -16
6 0 10 -6 10 -14 0 -8 5 -18 12 -22 7 -5 8 -2 3 7 -5 8 3 4 17 -8 13 -13 32
-23 42 -23 10 0 14 -5 10 -12 -4 -6 -3 -8 4 -4 6 3 13 2 17 -3 3 -7 15 -7 29
-1 13 5 27 6 30 3 3 -4 16 2 28 13 12 10 18 13 14 7 -5 -9 -2 -11 8 -7 9 3 14
9 12 13 -3 4 5 13 17 21 21 12 21 12 8 -6 -8 -10 1 -3 19 16 19 19 33 38 32
43 -1 4 3 7 9 7 5 0 7 4 4 10 -3 6 -2 10 3 10 19 0 63 130 69 205 10 115 9
560 -1 574 -9 12 -8 13 4 6 9 -5 8 0 -4 13 -19 22 -32 30 -21 13z"/>
<path d="M1833 1486 c-4 -5 -1 -6 7 -1 9 5 11 4 6 -4 -6 -9 -11 -9 -22 0 -11
9 -14 9 -14 0 0 -7 -4 -9 -10 -6 -5 3 -10 1 -10 -5 0 -6 -7 -13 -16 -17 -26
-10 -61 -46 -68 -71 -4 -13 -12 -19 -18 -16 -7 5 -9 1 -5 -9 3 -10 2 -17 -4
-17 -6 0 -7 -4 -4 -10 3 -5 2 -10 -3 -10 -5 0 -9 -7 -10 -15 -1 -8 -3 -22 -4
-30 -1 -8 -6 -15 -11 -15 -6 0 -7 -3 -4 -6 3 -4 2 -15 -4 -25 -7 -14 -6 -19 3
-19 9 0 10 -3 2 -8 -7 -4 -12 -45 -13 -101 -1 -52 -5 -99 -7 -103 -3 -4 0 -8
6 -8 6 0 8 -5 4 -11 -9 -16 -11 -109 -1 -109 5 0 5 -5 1 -11 -10 -17 -10 -109
0 -109 5 0 3 -6 -3 -13 -6 -8 -9 -16 -6 -18 2 -3 5 -39 6 -81 1 -43 6 -75 10
-72 5 3 9 -1 9 -8 0 -8 3 -9 8 -3 10 14 45 16 54 2 6 -9 8 -8 8 2 0 10 3 11
14 2 11 -9 16 -9 22 0 5 8 3 10 -7 5 -8 -5 -8 -2 2 6 13 11 15 35 14 139 -1
69 -5 131 -9 137 -4 7 -2 12 4 12 6 0 8 5 4 12 -11 18 -12 48 -2 48 5 0 6 6 2
12 -11 18 -12 48 -2 48 5 0 6 6 2 12 -12 19 -12 48 -1 48 5 0 4 6 -2 13 -6 8
-8 17 -5 20 3 3 8 32 11 64 2 32 5 64 5 70 1 7 4 11 6 8 3 -3 10 5 16 16 6 12
16 22 21 22 6 0 15 7 22 16 7 9 13 12 13 7 0 -5 8 -2 17 5 9 8 14 9 10 3 -4
-7 0 -15 9 -18 9 -3 12 -2 8 5 -3 6 3 5 14 -2 20 -13 58 -69 46 -69 -3 0 -2
-6 4 -12 13 -17 18 -69 9 -86 -5 -6 -5 -12 0 -12 10 0 9 -213 -1 -229 -4 -6
-4 -11 1 -11 4 0 7 -63 6 -140 -2 -142 -2 -144 33 -139 4 0 11 -5 15 -13 7
-11 9 -11 9 1 0 11 3 11 17 0 15 -12 16 -12 10 4 -5 13 -3 16 6 10 33 -20 52
3 43 52 -2 11 1 26 7 33 5 6 6 12 1 12 -11 0 -11 91 0 108 4 6 4 12 -1 12 -10
0 -9 112 0 127 4 7 4 14 0 16 -10 6 -9 109 1 125 4 6 3 12 -3 12 -5 0 -8 10
-6 23 2 12 6 44 9 70 3 30 12 55 23 64 10 8 11 11 3 7 -8 -4 -4 4 10 17 15 15
28 21 32 14 4 -6 8 -2 8 9 0 15 3 16 15 6 12 -10 15 -10 15 1 0 11 2 11 10 -1
5 -8 10 -10 10 -5 0 6 5 2 11 -8 6 -9 15 -14 21 -11 7 4 8 2 4 -4 -4 -7 -2
-12 3 -12 6 0 11 -7 11 -15 0 -8 5 -15 11 -15 5 0 7 -4 4 -10 -3 -5 -2 -10 2
-10 5 0 8 -18 8 -40 0 -22 3 -40 8 -40 4 0 3 -8 -2 -18 -6 -11 -6 -24 0 -35 7
-12 6 -17 -1 -17 -6 0 -8 -5 -4 -12 10 -17 11 -108 1 -108 -5 0 -5 -6 -1 -12
11 -18 12 -48 2 -54 -4 -3 -6 -10 -2 -15 10 -17 12 -59 2 -65 -5 -3 -4 -11 2
-19 6 -7 7 -15 3 -18 -5 -3 -7 -23 -5 -44 1 -21 3 -44 2 -50 -1 -59 1 -69 23
-82 11 -8 16 -8 12 -2 -3 6 -2 11 4 11 5 0 13 -5 16 -10 4 -7 13 -7 24 0 12 6
22 5 29 -2 15 -15 29 19 27 67 -1 22 2 47 6 56 5 9 5 19 2 23 -9 9 -10 167 -1
173 5 2 5 9 1 16 -10 16 -10 197 0 197 5 0 5 6 0 13 -6 6 -11 34 -12 62 -1 27
-7 55 -12 61 -7 8 -6 14 3 17 11 4 10 6 0 6 -7 1 -10 6 -7 11 3 6 1 10 -5 10
-6 0 -10 6 -9 13 1 6 -3 25 -9 40 -7 16 -12 32 -12 37 0 5 -12 18 -26 29 -15
12 -21 21 -14 21 7 0 1 9 -14 21 -14 11 -23 26 -19 32 4 6 0 8 -9 4 -9 -3 -21
0 -27 6 -6 6 -11 7 -11 2 0 -6 -4 -4 -9 3 -9 15 -91 22 -91 9 0 -5 -5 -5 -10
-2 -6 3 -13 -1 -16 -9 -3 -9 -10 -14 -14 -11 -9 5 -60 -43 -60 -57 0 -5 -4 -6
-10 -3 -9 6 -14 -7 -11 -27 0 -4 -10 -2 -24 4 -13 6 -24 14 -23 17 2 20 -4 31
-17 31 -8 0 -15 5 -15 11 0 5 -4 7 -10 4 -6 -4 -7 1 -3 12 3 10 2 15 -2 10 -5
-4 -17 1 -28 10 -11 10 -18 13 -14 7 3 -6 0 -11 -7 -11 -8 0 -12 5 -10 12 5
13 -65 15 -73 1z"/>
<path d="M2751 1492 c-6 -2 -8 -9 -4 -15 4 -7 -1 -6 -10 2 -11 9 -17 10 -17 2
0 -6 -6 -10 -12 -8 -7 1 -12 -3 -11 -10 2 -8 -4 -10 -14 -6 -11 4 -14 3 -9 -5
4 -7 2 -12 -3 -12 -6 0 -28 -17 -48 -37 -25 -24 -31 -34 -18 -29 19 7 19 6 -1
-13 -25 -23 -63 -98 -70 -138 -3 -15 -7 -35 -10 -44 -5 -19 -15 -82 -18 -119
-1 -14 2 -32 6 -41 4 -9 4 -19 1 -23 -9 -9 -11 -46 -3 -46 3 0 5 -13 4 -30 -1
-17 3 -30 9 -30 7 0 5 -5 -3 -10 -12 -8 -12 -10 -1 -10 8 0 12 -3 9 -6 -4 -3
-2 -20 4 -37 5 -18 11 -39 13 -47 2 -8 4 -16 5 -17 2 -2 3 -6 4 -10 3 -14 39
-78 46 -83 4 -3 12 -15 19 -28 7 -12 16 -20 22 -17 5 4 9 1 9 -5 0 -12 31 -47
37 -42 10 7 23 0 17 -10 -4 -7 -3 -8 4 -4 6 4 20 1 31 -6 15 -9 23 -9 36 2 9
7 15 9 14 4 -4 -23 2 -26 17 -8 8 10 12 12 8 4 -4 -8 5 -4 21 10 16 14 25 18
21 10 -4 -8 1 -4 12 9 l19 24 18 -26 c9 -15 21 -25 25 -22 5 3 11 -1 13 -7 4
-10 6 -9 6 1 1 11 4 11 18 0 15 -12 16 -12 10 4 -5 14 -3 16 12 8 10 -6 21 -7
25 -4 3 3 6 0 7 -8 0 -8 5 -3 11 11 12 30 15 110 4 128 -4 6 -4 12 1 12 4 0 8
11 8 25 0 14 -4 25 -8 25 -5 0 -5 6 0 13 12 19 12 37 1 37 -7 0 -7 4 0 13 7 8
7 18 2 27 -5 8 -5 21 0 30 5 9 5 21 2 27 -7 11 -7 49 1 106 3 15 0 30 -5 33
-4 3 -5 10 -2 16 10 17 11 118 1 118 -5 0 -7 7 -4 15 4 8 2 17 -4 20 -5 4 -7
10 -4 15 6 10 -33 111 -46 120 -4 3 -9 12 -11 20 -4 18 -50 66 -60 63 -4 -2
-4 5 -1 14 4 10 2 14 -4 10 -5 -3 -25 5 -43 18 -38 28 -45 30 -34 13 5 -7 3
-8 -6 -3 -15 9 -51 13 -69 7z m62 -216 c14 2 16 0 7 -11 -10 -11 -8 -13 9 -10
14 2 21 -1 21 -11 0 -8 4 -14 9 -14 5 0 19 -21 30 -46 16 -34 19 -49 11 -59
-8 -9 -8 -15 0 -20 5 -3 10 -17 10 -31 0 -17 -4 -23 -12 -18 -7 5 -8 3 -2 -7
20 -33 8 -201 -16 -219 -3 -3 -10 -14 -14 -25 -5 -15 -9 -16 -15 -6 -6 9 -10
7 -14 -9 -4 -15 -11 -21 -21 -17 -9 4 -16 1 -17 -6 0 -8 -2 -7 -6 2 -4 10 -7
10 -13 1 -5 -8 -11 -7 -24 5 -9 9 -16 11 -16 5 0 -6 -11 0 -25 14 -14 14 -25
30 -25 36 0 6 -7 18 -15 26 -24 25 -53 174 -33 174 5 0 4 8 -1 18 -7 13 -6 23
1 30 9 9 9 12 0 12 -12 0 -11 5 17 58 9 17 8 22 -1 22 -8 1 -6 6 4 14 10 7 15
16 11 19 -3 4 -1 7 5 7 7 0 12 7 12 15 0 8 8 15 17 15 9 0 13 3 10 7 -9 8 43
34 54 27 5 -3 9 1 9 8 0 9 3 10 8 2 4 -6 15 -10 25 -8z"/>
<path d="M3743 1492 c-13 -2 -23 -8 -23 -13 0 -6 -5 -7 -10 -4 -6 3 -13 -1
-16 -10 -4 -9 -12 -14 -18 -12 -14 5 -47 -29 -38 -39 4 -4 -2 -4 -13 0 -11 4
-16 4 -13 0 4 -3 -4 -21 -17 -39 -14 -17 -25 -37 -25 -43 0 -7 -6 -12 -12 -12
-10 0 -9 -3 1 -9 11 -7 10 -11 -5 -20 -11 -6 -15 -11 -10 -11 5 0 3 -7 -4 -15
-6 -8 -9 -19 -5 -25 3 -5 1 -10 -5 -10 -7 0 -10 -7 -7 -15 4 -8 2 -17 -3 -20
-5 -3 -7 -14 -5 -25 2 -11 0 -20 -4 -20 -8 0 -6 -248 2 -280 13 -52 21 -76 27
-85 4 -5 6 -18 5 -28 -2 -9 0 -15 5 -12 5 3 14 -11 20 -30 6 -19 16 -35 21
-35 6 0 9 -3 7 -7 -6 -12 85 -98 107 -101 11 -2 25 -11 32 -20 7 -10 13 -12
13 -5 0 7 14 10 35 8 20 -2 33 1 30 6 -4 5 3 9 14 9 12 0 21 5 21 12 0 6 3 8
6 5 4 -4 15 3 25 15 11 11 19 17 19 12 1 -5 11 9 22 31 12 22 21 43 20 48 -1
4 2 7 6 7 5 0 8 8 7 18 -3 25 -37 92 -47 92 -5 0 -7 4 -4 9 3 5 -5 11 -19 13
-13 3 -22 2 -20 -2 7 -11 -25 -51 -36 -45 -5 4 -9 1 -9 -6 0 -7 -3 -9 -7 -6
-3 4 -12 -1 -20 -11 -8 -9 -12 -11 -8 -4 6 11 -6 16 -32 13 -7 -1 -13 2 -13 7
0 6 -7 13 -16 16 -15 6 -15 4 -3 -11 12 -16 12 -17 -1 -6 -8 6 -24 29 -35 50
-11 21 -23 41 -28 44 -4 3 -8 26 -9 52 -1 26 -5 47 -8 47 -3 0 -4 24 -3 52 1
29 2 53 3 53 1 0 3 16 5 35 1 19 3 36 5 38 1 1 3 5 4 10 1 4 9 21 19 38 9 17
13 35 9 39 -4 3 -2 6 3 5 22 -5 35 1 33 13 -2 6 3 11 10 10 6 -2 12 1 12 6 0
6 9 8 20 6 11 -2 20 1 20 7 0 7 7 3 16 -8 8 -10 13 -13 9 -6 -10 19 2 14 29
-13 14 -14 30 -25 35 -25 6 0 8 -6 5 -13 -3 -8 2 -14 10 -14 8 0 13 4 10 9 -3
4 0 8 6 8 6 0 9 4 5 9 -3 6 0 13 7 18 33 21 55 112 29 121 -6 2 -11 10 -11 18
0 8 -7 17 -16 21 -8 3 -13 12 -10 19 3 8 2 14 -2 14 -5 0 -18 9 -30 20 -12 12
-22 16 -22 11 0 -6 -7 -8 -15 -5 -8 4 -13 10 -10 14 3 4 -4 10 -15 13 -11 3
-20 0 -20 -5 0 -7 -5 -7 -12 -1 -7 5 -23 7 -35 5z"/>
</g>
</svg>
